<?xml version="1.0" encoding="utf-8"?>
<!-- Generator: Adobe Illustrator 23.0.1, SVG Export Plug-In . SVG Version: 6.00 Build 0)  -->
<svg version="1.1" id="Ebene_1" xmlns="http://www.w3.org/2000/svg" xmlns:xlink="http://www.w3.org/1999/xlink" x="0px" y="0px"
	 viewBox="0 0 550 500" style="enable-background:new 0 0 550 500;" xml:space="preserve">
<style type="text/css">
	.st0{fill:#58AB27;}
	.st1{fill:#FFFFFF;}
	.st2{font-family:'Helvetica';}
	.st3{font-size:50px;}
	.st4{fill:#009036;}
	.st5{fill:#B1C800;}
	.st6{fill:#FFEC00;}
	.st7{fill:#FECC00;}
	.st8{fill:#F29400;}
	.st9{fill:#E2001A;}
	.st10{font-size:60px;}
</style>
<path class="st0" d="M210,80H0v60h210l30-30L210,80z"/>
<text transform="matrix(1 0 0 1 176.6484 130)" class="st1 st2 st3">A</text>
<path class="st4" d="M180,10H0v60h180l30-30L180,10z"/>
<text transform="matrix(1 0 0 1 130.4375 60)" class="st1 st2 st3">A⁺</text>
<path class="st5" d="M240,150H0v60h240l30-30L240,150z"/>
<text transform="matrix(1 0 0 1 206.6484 200)" class="st1 st2 st3">B</text>
<path class="st6" d="M270,220H0v60h270l30-30L270,220z"/>
<text transform="matrix(1 0 0 1 233.8906 270)" class="st1 st2 st3">C</text>
<path class="st7" d="M300,290H0v60h300l30-30L300,290z"/>
<text transform="matrix(1 0 0 1 263.8906 340)" class="st1 st2 st3">D</text>
<path class="st8" d="M330,360H0v60h330l30-30L330,360z"/>
<text transform="matrix(1 0 0 1 296.6484 410)" class="st1 st2 st3">E</text>
<path class="st9" d="M360,430H0v60h360l30-30L360,430z"/>
<text transform="matrix(1 0 0 1 329.4609 480)" class="st1 st2 st3">F</text>
<g id="E">
	<path d="M440,430l-40-40l40-40h110v80H440z"/>
	<text transform="matrix(1 0 0 1 474.9922 410)" class="st1 st2 st10">E</text>
</g>
</svg>
