<?xml version="1.0" encoding="utf-8"?>
<!-- Generator: Adobe Illustrator 25.4.1, SVG Export Plug-In . SVG Version: 6.00 Build 0)  -->
<svg version="1.1" xmlns="http://www.w3.org/2000/svg" xmlns:xlink="http://www.w3.org/1999/xlink" x="0px" y="0px"
	 viewBox="0 0 640 421.7" style="enable-background:new 0 0 640 421.7;" xml:space="preserve">
<style type="text/css">
	.st0{display:none;fill:#DE000B;}
	.st1{display:none;fill:#EF7C00;}
	.st2{display:none;fill:#FFDD00;}
	.st3{display:none;fill:#DEDC00;}
	.st4{display:none;fill:#91BC19;}
	.st5{display:none;fill:#37AA32;}
	.st6{display:none;fill:#05A535;}
	.st7{display:none;fill:#00953E;}
	.st8{display:none;fill:#006633;}
	.st9{display:none;fill:#FDC300;}
	.st10{display:none;fill:#1D1D1B;}
	.st11{display:none;}
	.st12{display:inline;fill:#FFFFFF;}
	.st13{fill:#1D1D1B;}
	.st14{fill:#FFFFFF;}
	.st15{fill:#00A551;}
	.st16{fill:#4EB849;}
	.st17{fill:#BDD630;}
	.st18{fill:#BCD533;}
	.st19{fill:#FFF301;}
	.st20{fill:#F36012;}
	.st21{fill:#EE1C25;}
	.st22{fill:#EF1D26;}
</style>
<g id="Ebene_1">
	<polygon class="st0" points="421.1,386.6 0,386.6 0,421.7 421.1,421.7 442.1,405.4 	"/>
	<polygon class="st1" points="407,343.7 0,343.7 0,378.8 407,378.8 427.3,362.5 	"/>
	<polygon class="st2" points="376,257.8 0,257.8 0,292.9 376,292.9 394.8,276.6 	"/>
	<polygon class="st3" points="359.3,213.4 0,213.4 0,248.4 359.3,248.4 377.2,232.2 	"/>
	<polygon class="st4" points="347.4,170.4 0,170.4 0,205.5 347.4,205.5 364.7,189.2 	"/>
	<polygon class="st5" points="332.4,126.9 0,126.9 0,162 332.4,162 349,145.7 	"/>
	<polygon class="st6" points="317.5,83.3 0,83.3 0,118.4 317.5,118.4 333.3,102.1 	"/>
	<polygon class="st7" points="296.6,41.7 0,41.7 0,76.8 296.6,76.8 311.4,60.5 	"/>
	<polygon class="st8" points="275.1,0 0,0 0,35.1 275.1,35.1 288.9,18.8 	"/>
	<polygon class="st9" points="391.5,300.8 0,300.8 0,335.9 391.5,335.9 411,319.6 	"/>
	<polygon class="st10" points="506.7,118.4 640,118.4 640,83.3 506.7,83.3 492.7,99.6 	"/>
	<g class="st11">
		<path class="st12" d="M601.1,107.1h-3.5l-1.4-3.6h-6.3l-1.3,3.6h-3.4l6.2-15.8h3.4L601.1,107.1z M595.2,100.8l-2.2-5.9l-2.1,5.9
			H595.2z"/>
		<path class="st12" d="M606.2,104.8v-4.1h-4.2v-2.8h4.2v-4.1h2.8v4.1h4.2v2.8H609v4.1H606.2z"/>
	</g>
	<polygon class="st10" points="506.7,162 640,162 640,126.9 506.7,126.9 492.7,143.2 	"/>
	<g class="st11">
		<path class="st12" d="M601.1,150.6h-3.5l-1.4-3.6h-6.3l-1.3,3.6h-3.4l6.2-15.8h3.4L601.1,150.6z M595.2,144.4l-2.2-5.9l-2.1,5.9
			H595.2z"/>
	</g>
	<polygon class="st10" points="506.7,205.5 640,205.5 640,170.4 506.7,170.4 492.7,186.7 	"/>
	<g class="st11">
		<path class="st12" d="M586.8,178.3h6.3c1.3,0,2.2,0.1,2.8,0.2c0.6,0.1,1.2,0.3,1.7,0.7c0.5,0.3,0.9,0.8,1.2,1.3s0.5,1.2,0.5,1.9
			c0,0.7-0.2,1.4-0.6,2c-0.4,0.6-0.9,1.1-1.6,1.4c1,0.3,1.7,0.8,2.2,1.4c0.5,0.7,0.8,1.5,0.8,2.4c0,0.7-0.2,1.4-0.5,2.1
			c-0.3,0.7-0.8,1.2-1.4,1.6s-1.3,0.7-2.1,0.8c-0.5,0.1-1.8,0.1-3.9,0.1h-5.4V178.3z M590,181v3.7h2.1c1.2,0,2,0,2.3-0.1
			c0.5-0.1,1-0.3,1.3-0.6c0.3-0.3,0.5-0.7,0.5-1.2c0-0.5-0.1-0.9-0.4-1.2c-0.3-0.3-0.7-0.5-1.2-0.6c-0.3,0-1.2-0.1-2.7-0.1H590z
			 M590,187.3v4.2h3c1.2,0,1.9,0,2.2-0.1c0.5-0.1,0.9-0.3,1.2-0.6c0.3-0.3,0.4-0.8,0.4-1.3c0-0.5-0.1-0.9-0.3-1.2s-0.6-0.6-1-0.7
			c-0.4-0.2-1.4-0.2-2.8-0.2H590z"/>
	</g>
	<polygon class="st10" points="506.7,248.4 640,248.4 640,213.4 506.7,213.4 492.7,229.6 	"/>
	<g class="st11">
		<path class="st12" d="M596.9,231.3l3.1,1c-0.5,1.7-1.3,3-2.4,3.9c-1.1,0.8-2.5,1.3-4.2,1.3c-2.1,0-3.8-0.7-5.2-2.2
			c-1.4-1.4-2-3.4-2-5.9c0-2.6,0.7-4.7,2-6.1c1.4-1.5,3.2-2.2,5.4-2.2c1.9,0,3.5,0.6,4.7,1.7c0.7,0.7,1.3,1.7,1.6,2.9l-3.2,0.8
			c-0.2-0.8-0.6-1.5-1.2-1.9s-1.3-0.7-2.2-0.7c-1.2,0-2.1,0.4-2.9,1.3c-0.7,0.8-1.1,2.2-1.1,4.1c0,2,0.4,3.4,1.1,4.3
			c0.7,0.9,1.7,1.3,2.8,1.3c0.9,0,1.6-0.3,2.2-0.8C596.2,233.3,596.7,232.4,596.9,231.3z"/>
	</g>
	<polygon class="st10" points="506.7,293.2 640,293.2 640,258.1 506.7,258.1 492.7,274.4 	"/>
	<g class="st11">
		<path class="st12" d="M586.8,266h5.9c1.3,0,2.3,0.1,3,0.3c0.9,0.3,1.7,0.8,2.4,1.5c0.7,0.7,1.2,1.6,1.5,2.6c0.3,1,0.5,2.3,0.5,3.7
			c0,1.3-0.2,2.4-0.5,3.4c-0.4,1.2-1,2.1-1.7,2.8c-0.6,0.5-1.3,1-2.2,1.3c-0.7,0.2-1.7,0.3-2.8,0.3h-6V266z M590,268.7v10.5h2.4
			c0.9,0,1.5-0.1,1.9-0.2c0.5-0.1,1-0.3,1.3-0.7c0.3-0.3,0.6-0.8,0.8-1.5c0.2-0.7,0.3-1.7,0.3-2.9c0-1.2-0.1-2.2-0.3-2.8
			c-0.2-0.7-0.5-1.2-0.9-1.5c-0.4-0.4-0.9-0.6-1.5-0.7c-0.4-0.1-1.3-0.2-2.6-0.2H590z"/>
	</g>
	<polygon class="st10" points="506.7,335.9 640,335.9 640,300.9 506.7,300.9 492.7,317.1 	"/>
	<g class="st11">
		<path class="st12" d="M586.8,324.6v-15.8h11.8v2.7H590v3.5h8v2.7h-8v4.3h8.9v2.7H586.8z"/>
	</g>
	<polygon class="st10" points="506.7,378.8 640,378.8 640,343.7 506.7,343.7 492.7,360 	"/>
	<g class="st11">
		<path class="st12" d="M586.8,367.4v-15.8h10.9v2.7H590v3.8h6.6v2.7H590v6.7H586.8z"/>
	</g>
	<polygon class="st10" points="506.7,421.7 640,421.7 640,386.6 506.7,386.6 492.7,402.9 	"/>
	<g class="st11">
		<path class="st12" d="M594.2,404.5v-2.7h6.9v6.3c-0.7,0.6-1.6,1.2-2.9,1.7c-1.3,0.5-2.6,0.7-3.9,0.7c-1.7,0-3.1-0.3-4.3-1
			c-1.2-0.7-2.2-1.7-2.8-3c-0.6-1.3-0.9-2.7-0.9-4.2c0-1.7,0.3-3.1,1-4.4c0.7-1.3,1.7-2.3,3-3c1-0.5,2.3-0.8,3.8-0.8
			c2,0,3.5,0.4,4.6,1.2c1.1,0.8,1.8,2,2.1,3.4l-3.2,0.6c-0.2-0.8-0.6-1.4-1.3-1.8c-0.6-0.5-1.4-0.7-2.3-0.7c-1.4,0-2.5,0.4-3.3,1.3
			c-0.8,0.9-1.2,2.2-1.2,3.9c0,1.9,0.4,3.3,1.3,4.2c0.8,0.9,1.9,1.4,3.3,1.4c0.7,0,1.3-0.1,2-0.4c0.7-0.3,1.3-0.6,1.7-1v-2H594.2z"
			/>
	</g>
	<polygon class="st10" points="506.7,76.8 640,76.8 640,41.7 506.7,41.7 492.7,58 	"/>
	<g class="st11">
		<path class="st12" d="M601.1,65.4h-3.5l-1.4-3.6h-6.3l-1.3,3.6h-3.4l6.2-15.8h3.4L601.1,65.4z M595.2,59.2l-2.2-5.9l-2.1,5.9
			H595.2z"/>
		<path class="st12" d="M606.2,63.1V59h-4.2v-2.8h4.2v-4.1h2.8v4.1h4.2V59H609v4.1H606.2z"/>
		<path class="st12" d="M619.2,63.1V59H615v-2.8h4.2v-4.1h2.8v4.1h4.2V59H622v4.1H619.2z"/>
	</g>
	<polygon class="st10" points="506.7,35.1 640,35.1 640,0 506.7,0 492.7,16.3 	"/>
	<g class="st11">
		<path class="st12" d="M601.1,23.8h-3.5l-1.4-3.6h-6.3l-1.3,3.6h-3.4l6.2-15.8h3.4L601.1,23.8z M595.2,17.5l-2.2-5.9l-2.1,5.9
			H595.2z"/>
		<path class="st12" d="M606.2,21.5v-4.1h-4.2v-2.8h4.2v-4.1h2.8v4.1h4.2v2.8H609v4.1H606.2z"/>
		<path class="st12" d="M619.2,21.5v-4.1H615v-2.8h4.2v-4.1h2.8v4.1h4.2v2.8H622v4.1H619.2z"/>
		<path class="st12" d="M632.1,21.5v-4.1H628v-2.8h4.2v-4.1h2.8v4.1h4.2v2.8h-4.2v4.1H632.1z"/>
	</g>
	<g class="st11">
		<path class="st12" d="M18.3,408.4v-2.7h6.9v6.3c-0.7,0.6-1.6,1.2-2.9,1.7c-1.3,0.5-2.6,0.7-3.9,0.7c-1.7,0-3.1-0.3-4.3-1
			s-2.2-1.7-2.8-3c-0.6-1.3-0.9-2.7-0.9-4.2c0-1.7,0.3-3.1,1-4.4c0.7-1.3,1.7-2.3,3-3c1-0.5,2.3-0.8,3.8-0.8c2,0,3.5,0.4,4.6,1.2
			c1.1,0.8,1.8,2,2.1,3.4l-3.2,0.6c-0.2-0.8-0.6-1.4-1.3-1.8c-0.6-0.5-1.4-0.7-2.3-0.7c-1.4,0-2.5,0.4-3.3,1.3
			c-0.8,0.9-1.2,2.2-1.2,3.9c0,1.9,0.4,3.3,1.3,4.2s1.9,1.4,3.3,1.4c0.7,0,1.3-0.1,2-0.4c0.7-0.3,1.3-0.6,1.7-1v-2H18.3z"/>
	</g>
	<g class="st11">
		<path class="st12" d="M12.9,369.4v-15.8h10.9v2.7h-7.7v3.8h6.6v2.7h-6.6v6.7H12.9z"/>
	</g>
	<g class="st11">
		<path class="st12" d="M12.3,326.5v-15.8H24v2.7h-8.6v3.5h8v2.7h-8v4.3h8.9v2.7H12.3z"/>
	</g>
	<g class="st11">
		<path class="st12" d="M11.6,267.3h5.9c1.3,0,2.3,0.1,3,0.3c0.9,0.3,1.7,0.8,2.4,1.5c0.7,0.7,1.2,1.6,1.5,2.6s0.5,2.3,0.5,3.7
			c0,1.3-0.2,2.4-0.5,3.4c-0.4,1.2-1,2.1-1.7,2.8c-0.6,0.5-1.3,1-2.3,1.3c-0.7,0.2-1.7,0.3-2.8,0.3h-6V267.3z M14.8,269.9v10.5h2.4
			c0.9,0,1.5-0.1,1.9-0.2c0.5-0.1,1-0.3,1.3-0.7c0.3-0.3,0.6-0.8,0.8-1.5c0.2-0.7,0.3-1.7,0.3-2.9c0-1.2-0.1-2.2-0.3-2.8
			c-0.2-0.7-0.5-1.2-0.9-1.5c-0.4-0.4-0.9-0.6-1.5-0.7c-0.4-0.1-1.3-0.2-2.6-0.2H14.8z"/>
	</g>
	<g class="st11">
		<path class="st12" d="M21.7,237.4l3.1,1c-0.5,1.7-1.3,3-2.4,3.9c-1.1,0.8-2.5,1.3-4.2,1.3c-2.1,0-3.8-0.7-5.2-2.2
			c-1.4-1.4-2-3.4-2-5.9c0-2.6,0.7-4.7,2-6.1c1.4-1.5,3.2-2.2,5.4-2.2c1.9,0,3.5,0.6,4.7,1.7c0.7,0.7,1.3,1.7,1.6,2.9l-3.2,0.8
			c-0.2-0.8-0.6-1.5-1.2-1.9c-0.6-0.5-1.3-0.7-2.2-0.7c-1.2,0-2.1,0.4-2.9,1.3c-0.7,0.8-1.1,2.2-1.1,4.1c0,2,0.4,3.4,1.1,4.3
			c0.7,0.9,1.7,1.3,2.8,1.3c0.9,0,1.6-0.3,2.2-0.8C21,239.4,21.5,238.6,21.7,237.4z"/>
	</g>
	<g class="st11">
		<path class="st12" d="M11.6,180.4h6.3c1.3,0,2.2,0.1,2.8,0.2c0.6,0.1,1.2,0.3,1.7,0.7c0.5,0.3,0.9,0.8,1.2,1.3
			c0.3,0.6,0.5,1.2,0.5,1.9c0,0.7-0.2,1.4-0.6,2c-0.4,0.6-0.9,1.1-1.6,1.4c1,0.3,1.7,0.8,2.2,1.4c0.5,0.7,0.8,1.5,0.8,2.4
			c0,0.7-0.2,1.4-0.5,2.1c-0.3,0.7-0.8,1.2-1.4,1.6s-1.3,0.7-2.1,0.8c-0.5,0.1-1.8,0.1-3.9,0.1h-5.4V180.4z M14.8,183v3.7h2.1
			c1.2,0,2,0,2.3-0.1c0.5-0.1,1-0.3,1.3-0.6c0.3-0.3,0.5-0.7,0.5-1.2c0-0.5-0.1-0.9-0.4-1.2c-0.3-0.3-0.7-0.5-1.2-0.6
			c-0.3,0-1.2-0.1-2.7-0.1H14.8z M14.8,189.3v4.2h3c1.2,0,1.9,0,2.2-0.1c0.5-0.1,0.9-0.3,1.2-0.6c0.3-0.3,0.4-0.8,0.4-1.3
			c0-0.5-0.1-0.9-0.3-1.2s-0.6-0.6-1-0.7s-1.4-0.2-2.8-0.2H14.8z"/>
	</g>
	<g class="st11">
		<path class="st12" d="M26.1,152.3h-3.5l-1.4-3.6h-6.3l-1.3,3.6h-3.4l6.2-15.8h3.4L26.1,152.3z M20.2,146.1l-2.2-5.9l-2.1,5.9H20.2
			z"/>
	</g>
	<g class="st11">
		<path class="st12" d="M26.1,108.9h-3.5l-1.4-3.6h-6.3l-1.3,3.6h-3.4L16.4,93h3.4L26.1,108.9z M20.2,102.6L18,96.7l-2.1,5.9H20.2z"
			/>
		<path class="st12" d="M31.3,106.6v-4.1h-4.2v-2.8h4.2v-4.1H34v4.1h4.2v2.8H34v4.1H31.3z"/>
	</g>
	<g class="st11">
		<path class="st12" d="M26.1,66.9h-3.5l-1.4-3.6h-6.3l-1.3,3.6h-3.4L16.4,51h3.4L26.1,66.9z M20.2,60.6L18,54.7l-2.1,5.9H20.2z"/>
		<path class="st12" d="M31.3,64.6v-4.1h-4.2v-2.8h4.2v-4.1H34v4.1h4.2v2.8H34v4.1H31.3z"/>
		<path class="st12" d="M44.2,64.6v-4.1H40v-2.8h4.2v-4.1H47v4.1h4.2v2.8H47v4.1H44.2z"/>
	</g>
	<g class="st11">
		<path class="st12" d="M26.1,25.4h-3.5l-1.4-3.6h-6.3l-1.3,3.6h-3.4l6.2-15.8h3.4L26.1,25.4z M20.2,19.1L18,13.2l-2.1,5.9H20.2z"/>
		<path class="st12" d="M31.3,23.1V19h-4.2v-2.8h4.2V12H34v4.1h4.2V19H34v4.1H31.3z"/>
		<path class="st12" d="M44.2,23.1V19H40v-2.8h4.2V12H47v4.1h4.2V19H47v4.1H44.2z"/>
		<path class="st12" d="M57.1,23.1V19H53v-2.8h4.2V12h2.8v4.1h4.2V19h-4.2v4.1H57.1z"/>
	</g>
	
		<image style="display:none;overflow:visible;" width="1291" height="900" xlink:href="704BEAFF.jpg"  transform="matrix(0.9999 0 0 0.9999 770.1039 -201.4998)">
	</image>
</g>
<g id="Ebene_2">
</g>
<g id="Ebene_4">
	<polygon class="st10" points="640.3,374.2 529.2,374.1 493.4,397.5 528.7,421.2 640.3,421.2 	"/>
	<g class="st11">
		<path class="st12" d="M617.7,400.2v-4H628v9.5c-1,1-2.4,1.8-4.3,2.6c-1.9,0.7-3.8,1.1-5.8,1.1c-2.5,0-4.6-0.5-6.5-1.6
			c-1.8-1-3.2-2.5-4.1-4.5c-0.9-2-1.4-4.1-1.4-6.4c0-2.5,0.5-4.7,1.5-6.6c1-1.9,2.5-3.4,4.5-4.4c1.5-0.8,3.4-1.2,5.7-1.2
			c2.9,0,5.2,0.6,6.9,1.9c1.6,1.2,2.7,3,3.2,5.2l-4.7,0.9c-0.3-1.2-1-2.1-1.9-2.8c-0.9-0.7-2.1-1-3.4-1c-2.1,0-3.7,0.7-5,2
			c-1.2,1.3-1.8,3.3-1.8,5.9c0,2.8,0.6,5,1.9,6.4c1.2,1.4,2.9,2.1,4.9,2.1c1,0,2-0.2,3-0.6c1-0.4,1.9-0.9,2.6-1.4v-3H617.7z"/>
	</g>
	<polygon class="st10" points="640.3,333.4 529.2,333.3 493.4,356.7 528.7,380.4 640.3,380.4 	"/>
	<g class="st11">
		<path class="st12" d="M611.1,367.7V343h16.7v4.2h-11.8v5.8h10.2v4.2h-10.2v10.5H611.1z"/>
	</g>
	<polygon class="st10" points="640.3,291.6 529.2,291.6 493.4,314.9 528.7,338.6 640.3,338.6 	"/>
	<g class="st11">
		<path class="st12" d="M610.5,326v-24.7h18.1v4.2h-13.2v5.5h12.3v4.2h-12.3v6.7h13.6v4.2H610.5z"/>
	</g>
	<polygon class="st10" points="640.3,249.8 529.2,249.8 493.4,273.1 528.7,296.8 640.3,296.8 	"/>
	<g class="st11">
		<path class="st12" d="M607.4,261h9c2,0,3.6,0.2,4.6,0.5c1.4,0.4,2.7,1.2,3.7,2.3c1,1.1,1.8,2.4,2.3,4c0.5,1.6,0.8,3.5,0.8,5.8
			c0,2-0.3,3.8-0.7,5.3c-0.6,1.8-1.5,3.3-2.6,4.4c-0.9,0.8-2,1.5-3.5,2c-1.1,0.3-2.5,0.5-4.4,0.5h-9.3V261z M612.3,265.1v16.4h3.7
			c1.4,0,2.4-0.1,3-0.2c0.8-0.2,1.5-0.5,2-1c0.5-0.5,1-1.3,1.3-2.4c0.3-1.1,0.5-2.6,0.5-4.5c0-1.9-0.2-3.4-0.5-4.4
			c-0.3-1-0.8-1.8-1.4-2.4c-0.6-0.6-1.4-1-2.3-1.2c-0.7-0.2-2-0.2-4-0.2H612.3z"/>
	</g>
	<polygon class="st10" points="640.3,207.5 529.2,207.4 493.4,230.8 528.7,254.5 640.3,254.5 	"/>
	<g class="st11">
		<path class="st12" d="M623.5,234.1l4.4,1.5c-0.7,2.6-1.8,4.5-3.4,5.8c-1.6,1.3-3.6,1.9-6,1.9c-3,0-5.4-1.1-7.4-3.3
			c-1.9-2.2-2.9-5.1-2.9-8.9c0-4,1-7.1,2.9-9.3c1.9-2.2,4.5-3.3,7.6-3.3c2.8,0,5,0.9,6.7,2.6c1,1,1.8,2.5,2.3,4.4l-4.5,1.1
			c-0.3-1.2-0.8-2.2-1.7-2.9c-0.8-0.7-1.9-1.1-3.1-1.1c-1.7,0-3,0.6-4.1,1.9c-1,1.3-1.6,3.3-1.6,6.2c0,3,0.5,5.2,1.5,6.5
			c1,1.3,2.4,1.9,4,1.9c1.2,0,2.2-0.4,3.1-1.2C622.5,237.1,623.1,235.9,623.5,234.1z"/>
	</g>
	<polygon class="st10" points="640.3,168 529.2,168 493.4,191.3 528.7,215 640.3,215 	"/>
	<g class="st11">
		<path class="st12" d="M607.4,179.2h9.8c1.9,0,3.4,0.1,4.3,0.2c0.9,0.2,1.8,0.5,2.5,1c0.7,0.5,1.4,1.2,1.9,2.1
			c0.5,0.9,0.7,1.8,0.7,2.9c0,1.2-0.3,2.2-0.9,3.2c-0.6,1-1.5,1.7-2.5,2.2c1.5,0.4,2.6,1.2,3.4,2.2c0.8,1.1,1.2,2.3,1.2,3.7
			c0,1.1-0.3,2.2-0.8,3.3c-0.5,1.1-1.2,1.9-2.1,2.5c-0.9,0.6-2,1-3.3,1.2c-0.8,0.1-2.8,0.1-5.9,0.2h-8.3V179.2z M612.3,183.3v5.7
			h3.2c1.9,0,3.1,0,3.6-0.1c0.8-0.1,1.5-0.4,2-0.9c0.5-0.5,0.7-1.1,0.7-1.9c0-0.8-0.2-1.4-0.6-1.9c-0.4-0.5-1-0.8-1.9-0.9
			c-0.5-0.1-1.9-0.1-4.2-0.1H612.3z M612.3,193.1v6.6h4.6c1.8,0,2.9-0.1,3.4-0.2c0.7-0.1,1.3-0.5,1.8-1c0.5-0.5,0.7-1.2,0.7-2.1
			c0-0.7-0.2-1.4-0.5-1.9c-0.4-0.5-0.9-0.9-1.5-1.1c-0.7-0.2-2.1-0.4-4.4-0.4H612.3z"/>
	</g>
	<polygon class="st10" points="640.3,129.2 529.2,129.1 493.4,152.5 528.7,176.2 640.3,176.2 	"/>
	<g class="st11">
		<path class="st12" d="M627.9,165h-5.3l-2.1-5.6h-9.7l-2,5.6h-5.2l9.5-24.6h5.2L627.9,165z M618.8,155.2l-3.4-9.1l-3.3,9.1H618.8z"
			/>
	</g>
	<polygon class="st13" points="640.3,89.1 529.2,89.1 493.4,112.4 528.7,136.1 640.3,136.1 	"/>
	<g>
		<path class="st14" d="M607.8,124.9h-5.3l-2.1-5.6h-9.7l-2,5.6h-5.2l9.5-24.6h5.2L607.8,124.9z M598.7,115.2l-3.4-9.1l-3.3,9.1
			H598.7z"/>
		<path class="st14" d="M614.7,124.3v-8.6h-7.9v-5.9h7.9v-8.6h5.3v8.6h7.9v5.9H620v8.6H614.7z"/>
	</g>
	<polygon class="st10" points="640.3,45.8 529.2,45.7 493.4,69.1 528.7,92.8 640.3,92.8 	"/>
	<g class="st11">
		<path class="st12" d="M583,79.8h-5.3l-2.1-5.6h-9.7l-2,5.6h-5.2l9.5-24.6h5.2L583,79.8z M574,70.1l-3.4-9.1l-3.3,9.1H574z"/>
		<path class="st12" d="M589.9,79.2v-8.6H582v-5.9h7.9v-8.6h5.3v8.6h7.9v5.9h-7.9v8.6H589.9z"/>
		<path class="st12" d="M614.5,79.2v-8.6h-7.9v-5.9h7.9v-8.6h5.3v8.6h7.9v5.9h-7.9v8.6H614.5z"/>
	</g>
	<polygon class="st10" points="640.3,-0.4 529.2,-0.5 493.4,22.8 528.7,46.6 640.3,46.6 	"/>
	<g class="st11">
		<path class="st12" d="M558.6,35.3h-5.3l-2.1-5.6h-9.7l-2,5.6h-5.2l9.5-24.6h5.2L558.6,35.3z M549.5,25.6l-3.4-9.1l-3.3,9.1H549.5z
			"/>
		<path class="st12" d="M565.5,34.7v-8.6h-7.9v-5.9h7.9v-8.6h5.3v8.6h7.9v5.9h-7.9v8.6H565.5z"/>
		<path class="st12" d="M590,34.7v-8.6h-7.9v-5.9h7.9v-8.6h5.3v8.6h7.9v5.9h-7.9v8.6H590z"/>
		<path class="st12" d="M614.6,34.7v-8.6h-7.9v-5.9h7.9v-8.6h5.3v8.6h7.9v5.9h-7.9v8.6H614.6z"/>
	</g>
</g>
<g id="Ebene_3">
	<polygon class="st15" points="103.3,7.3 122,23.5 103.4,37.6 0,37.6 0,7.3 	"/>
	<g>
		<path class="st14" d="M26,31.4h-4l-1.6-4.1h-7.2l-1.5,4.1H7.9l7-18.2h3.8L26,31.4z M19.3,24.2l-2.5-6.8l-2.4,6.8H19.3z"/>
		<path class="st14" d="M31.1,30.9v-6.4h-5.8v-4.4h5.8v-6.4H35v6.4h5.8v4.4H35v6.4H31.1z"/>
		<path class="st14" d="M49.2,30.9v-6.4h-5.8v-4.4h5.8v-6.4h3.9v6.4h5.8v4.4h-5.8v6.4H49.2z"/>
		<path class="st14" d="M67.3,30.9v-6.4h-5.8v-4.4h5.8v-6.4h3.9v6.4H77v4.4h-5.8v6.4H67.3z"/>
	</g>
	<polygon class="st15" points="122.9,53.4 141.5,69.6 122.9,83.7 0,83.7 0,53.4 	"/>
	<g>
		<path class="st14" d="M24.3,78.2h-4l-1.6-4.1h-7.2l-1.5,4.1H6.2l7-18.2h3.8L24.3,78.2z M17.6,71l-2.5-6.8L12.7,71H17.6z"/>
		<path class="st14" d="M29.4,77.7v-6.4h-5.8V67h5.8v-6.4h3.9V67h5.8v4.4h-5.8v6.4H29.4z"/>
		<path class="st14" d="M47.5,77.7v-6.4h-5.8V67h5.8v-6.4h3.9V67h5.8v4.4h-5.8v6.4H47.5z"/>
	</g>
	<polygon class="st16" points="153.6,96.1 172.2,112.3 153.6,126.3 0,126.3 0,96.1 	"/>
	<g>
		<path class="st14" d="M23.9,120.3h-4l-1.6-4.1h-7.2l-1.5,4.1H5.8l7-18.2h3.8L23.9,120.3z M17.2,113.1l-2.5-6.8l-2.4,6.8H17.2z"/>
		<path class="st14" d="M29,119.8v-6.4h-5.8v-4.4H29v-6.4h3.9v6.4h5.8v4.4h-5.8v6.4H29z"/>
	</g>
	<polygon class="st17" points="184.3,136.6 203,152.8 184.3,166.8 0,166.8 0,136.6 	"/>
	<g>
		<path class="st14" d="M23.9,159.4h-4l-1.6-4.1h-7.2l-1.5,4.1H5.8l7-18.2h3.8L23.9,159.4z M17.2,152.2l-2.5-6.8l-2.4,6.8H17.2z"/>
	</g>
	<polygon class="st18" points="215.2,175.3 233.9,191.5 215.2,205.6 0,205.7 0,175.3 	"/>
	<g>
		<path class="st14" d="M7.3,181.8h7.2c1.4,0,2.5,0.1,3.2,0.2c0.7,0.1,1.3,0.4,1.9,0.8c0.6,0.4,1,0.9,1.4,1.5
			c0.4,0.6,0.6,1.3,0.6,2.1c0,0.9-0.2,1.6-0.7,2.3c-0.5,0.7-1.1,1.2-1.8,1.6c1.1,0.3,1.9,0.9,2.5,1.7c0.6,0.8,0.9,1.7,0.9,2.7
			c0,0.8-0.2,1.6-0.6,2.4c-0.4,0.8-0.9,1.4-1.6,1.9s-1.5,0.8-2.4,0.9c-0.6,0.1-2.1,0.1-4.4,0.1H7.3V181.8z M11,184.9v4.2h2.4
			c1.4,0,2.3,0,2.6-0.1c0.6-0.1,1.1-0.3,1.5-0.7c0.4-0.4,0.5-0.8,0.5-1.4c0-0.6-0.2-1-0.5-1.4c-0.3-0.4-0.8-0.6-1.4-0.6
			c-0.4,0-1.4-0.1-3.1-0.1H11z M11,192.1v4.9h3.4c1.3,0,2.1,0,2.5-0.1c0.5-0.1,1-0.3,1.3-0.7c0.3-0.4,0.5-0.9,0.5-1.5
			c0-0.5-0.1-1-0.4-1.4c-0.3-0.4-0.6-0.7-1.1-0.8s-1.6-0.3-3.2-0.3H11z"/>
	</g>
	<polygon class="st19" points="245.7,215 264.4,231.2 245.7,245.3 0,245.4 0,215.1 	"/>
	<g>
		<path class="st14" d="M18.6,233.8l3.4,1.1c-0.5,1.9-1.4,3.3-2.6,4.2c-1.2,0.9-2.7,1.4-4.6,1.4c-2.3,0-4.2-0.8-5.6-2.4
			c-1.5-1.6-2.2-3.7-2.2-6.5c0-2.9,0.7-5.1,2.2-6.7c1.5-1.6,3.4-2.4,5.8-2.4c2.1,0,3.8,0.6,5.1,1.9c0.8,0.7,1.4,1.8,1.8,3.2
			l-3.4,0.8c-0.2-0.9-0.6-1.6-1.3-2.1c-0.6-0.5-1.4-0.8-2.3-0.8c-1.3,0-2.3,0.5-3.1,1.4c-0.8,0.9-1.2,2.4-1.2,4.5
			c0,2.2,0.4,3.8,1.2,4.7c0.8,0.9,1.8,1.4,3,1.4c0.9,0,1.7-0.3,2.4-0.9C17.8,236,18.3,235,18.6,233.8z"/>
	</g>
	<polygon class="st20" points="276.4,256.8 295,273 276.4,287.1 0,287.2 0,256.8 	"/>
	<g>
		<path class="st14" d="M7.4,263H14c1.5,0,2.6,0.1,3.4,0.3c1,0.3,1.9,0.9,2.7,1.7c0.7,0.8,1.3,1.8,1.7,2.9c0.4,1.1,0.6,2.6,0.6,4.2
			c0,1.5-0.2,2.8-0.5,3.8c-0.4,1.3-1.1,2.4-1.9,3.2c-0.6,0.6-1.5,1.1-2.5,1.4c-0.8,0.3-1.9,0.4-3.2,0.4H7.4V263z M11,266.1V278h2.7
			c1,0,1.7-0.1,2.2-0.2c0.6-0.1,1.1-0.4,1.4-0.7c0.4-0.4,0.7-0.9,0.9-1.7c0.2-0.8,0.4-1.9,0.4-3.3c0-1.4-0.1-2.5-0.4-3.2
			c-0.2-0.7-0.6-1.3-1-1.7c-0.4-0.4-1-0.7-1.7-0.8c-0.5-0.1-1.5-0.2-2.9-0.2H11z"/>
	</g>
	<polygon class="st21" points="307.7,298.4 326.4,314.6 307.7,328.7 0,328.8 0,298.4 	"/>
	<g>
		<path class="st14" d="M8,323.3v-18.1h13.3v3.1h-9.7v4h9v3.1h-9v4.9h10v3.1H8z"/>
	</g>
	<polygon class="st21" points="337.8,340.2 356.5,356.4 337.8,370.5 0,370.6 0,340.2 	"/>
	<g>
		<path class="st14" d="M8.3,364.5v-18.1h12.3v3.1H12v4.3h7.5v3.1H12v7.7H8.3z"/>
	</g>
	<polygon class="st22" points="368.7,381.8 387.4,398 368.7,412.1 0,412.2 0,381.8 	"/>
	<g>
		<path class="st14" d="M15,399.3v-2.9h7.4v6.9c-0.7,0.7-1.8,1.3-3.1,1.9c-1.4,0.5-2.8,0.8-4.2,0.8c-1.8,0-3.3-0.4-4.7-1.1
			c-1.3-0.8-2.3-1.8-3-3.3c-0.7-1.4-1-2.9-1-4.6c0-1.8,0.4-3.4,1.1-4.8c0.7-1.4,1.8-2.5,3.3-3.2c1.1-0.6,2.5-0.9,4.1-0.9
			c2.1,0,3.8,0.5,5,1.3c1.2,0.9,2,2.1,2.3,3.7l-3.4,0.6c-0.2-0.8-0.7-1.5-1.4-2c-0.7-0.5-1.5-0.7-2.5-0.7c-1.5,0-2.7,0.5-3.6,1.4
			c-0.9,1-1.3,2.4-1.3,4.3c0,2.1,0.5,3.6,1.4,4.6c0.9,1,2.1,1.5,3.5,1.5c0.7,0,1.4-0.1,2.2-0.4c0.7-0.3,1.3-0.6,1.9-1v-2.2H15z"/>
	</g>
</g>
</svg>
