<?xml version="1.0" encoding="utf-8"?>
<!-- Generator: Adobe Illustrator 22.1.0, SVG Export Plug-In . SVG Version: 6.00 Build 0)  -->
<svg version="1.1" id="Ebene_1" xmlns="http://www.w3.org/2000/svg" xmlns:xlink="http://www.w3.org/1999/xlink" x="0px" y="0px"
	 viewBox="0 0 16 16" style="enable-background:new 0 0 16 16;" xml:space="preserve">
<style type="text/css">
	.st0{fill:#FFFFFF;}
	.st1{fill:#EE7203;}
	.st2{fill:#1D1D1B;}
</style>
<path class="st0" d="M14.2,0c1,0,1.8,1,1.8,2.2v11.6c0,1.2-0.8,2.2-1.8,2.2H1.7V0H14.2L14.2,0z"/>
<path class="st1" d="M1.8,16c-1,0-1.8-1-1.8-2.2V2.2C0,1,0.8,0,1.8,0h4.5v16H1.8L1.8,16z"/>
<path class="st2" d="M7.6,5.3h1.6V6l0,0c0.4-0.6,0.9-0.8,1.6-0.8c0.7,0,1.3,0.4,1.5,1l0,0c0.2-0.7,0.9-1,1.6-1
	c1.1,0,1.6,0.7,1.6,1.9v4.6H14V7.3c0-0.5-0.2-0.8-0.6-0.8c-0.5,0-0.9,0.4-0.9,1.1v4.2h-1.6V7.3c0-0.5-0.2-0.8-0.6-0.8
	c-0.5,0-0.9,0.4-0.9,1.1v4.2H7.7L7.6,5.3L7.6,5.3z"/>
</svg>